G04 #@! TF.FileFunction,Legend,Bot*
%FSLAX46Y46*%
G04 Gerber Fmt 4.6, Leading zero omitted, Abs format (unit mm)*
G04 Created by KiCad (PCBNEW 4.0.6-e0-6349~53~ubuntu16.04.1) date Thu Jun 15 10:39:54 2017*
%MOMM*%
%LPD*%
G01*
G04 APERTURE LIST*
%ADD10C,0.100000*%
%ADD11C,0.187500*%
%ADD12C,0.180000*%
G04 APERTURE END LIST*
D10*
D11*
X589286Y1160714D02*
X767857Y660714D01*
X946429Y1160714D01*
X1375001Y1410714D02*
X1446429Y1410714D01*
X1517858Y1375000D01*
X1553572Y1339286D01*
X1589286Y1267857D01*
X1625001Y1125000D01*
X1625001Y946429D01*
X1589286Y803571D01*
X1553572Y732143D01*
X1517858Y696429D01*
X1446429Y660714D01*
X1375001Y660714D01*
X1303572Y696429D01*
X1267858Y732143D01*
X1232143Y803571D01*
X1196429Y946429D01*
X1196429Y1125000D01*
X1232143Y1267857D01*
X1267858Y1339286D01*
X1303572Y1375000D01*
X1375001Y1410714D01*
X1946429Y732143D02*
X1982144Y696429D01*
X1946429Y660714D01*
X1910715Y696429D01*
X1946429Y732143D01*
X1946429Y660714D01*
X2696430Y660714D02*
X2267858Y660714D01*
X2482144Y660714D02*
X2482144Y1410714D01*
X2410715Y1303571D01*
X2339287Y1232143D01*
X2267858Y1196429D01*
X3339287Y660714D02*
X3339287Y1053571D01*
X3303573Y1125000D01*
X3232144Y1160714D01*
X3089287Y1160714D01*
X3017858Y1125000D01*
X3339287Y696429D02*
X3267858Y660714D01*
X3089287Y660714D01*
X3017858Y696429D01*
X2982144Y767857D01*
X2982144Y839286D01*
X3017858Y910714D01*
X3089287Y946429D01*
X3267858Y946429D01*
X3339287Y982143D01*
D12*
X13767855Y10160714D02*
X13482141Y10160714D01*
X13660713Y9660714D02*
X13660713Y10303571D01*
X13624998Y10375000D01*
X13553570Y10410714D01*
X13482141Y10410714D01*
X12910713Y9660714D02*
X12910713Y10053571D01*
X12946427Y10125000D01*
X13017856Y10160714D01*
X13160713Y10160714D01*
X13232142Y10125000D01*
X12910713Y9696429D02*
X12982142Y9660714D01*
X13160713Y9660714D01*
X13232142Y9696429D01*
X13267856Y9767857D01*
X13267856Y9839286D01*
X13232142Y9910714D01*
X13160713Y9946429D01*
X12982142Y9946429D01*
X12910713Y9982143D01*
X12553571Y9660714D02*
X12553571Y10410714D01*
X12553571Y10125000D02*
X12482142Y10160714D01*
X12339285Y10160714D01*
X12267856Y10125000D01*
X12232142Y10089286D01*
X12196428Y10017857D01*
X12196428Y9803571D01*
X12232142Y9732143D01*
X12267856Y9696429D01*
X12339285Y9660714D01*
X12482142Y9660714D01*
X12553571Y9696429D01*
X11875000Y9660714D02*
X11875000Y10160714D01*
X11875000Y10017857D02*
X11839285Y10089286D01*
X11803571Y10125000D01*
X11732142Y10160714D01*
X11660714Y10160714D01*
X11410714Y9660714D02*
X11410714Y10160714D01*
X11410714Y10410714D02*
X11446428Y10375000D01*
X11410714Y10339286D01*
X11374999Y10375000D01*
X11410714Y10410714D01*
X11410714Y10339286D01*
X10732142Y9696429D02*
X10803571Y9660714D01*
X10946428Y9660714D01*
X11017856Y9696429D01*
X11053571Y9732143D01*
X11089285Y9803571D01*
X11089285Y10017857D01*
X11053571Y10089286D01*
X11017856Y10125000D01*
X10946428Y10160714D01*
X10803571Y10160714D01*
X10732142Y10125000D01*
X10089285Y9660714D02*
X10089285Y10053571D01*
X10124999Y10125000D01*
X10196428Y10160714D01*
X10339285Y10160714D01*
X10410714Y10125000D01*
X10089285Y9696429D02*
X10160714Y9660714D01*
X10339285Y9660714D01*
X10410714Y9696429D01*
X10446428Y9767857D01*
X10446428Y9839286D01*
X10410714Y9910714D01*
X10339285Y9946429D01*
X10160714Y9946429D01*
X10089285Y9982143D01*
X9410714Y9660714D02*
X9410714Y10410714D01*
X9410714Y9696429D02*
X9482143Y9660714D01*
X9625000Y9660714D01*
X9696428Y9696429D01*
X9732143Y9732143D01*
X9767857Y9803571D01*
X9767857Y10017857D01*
X9732143Y10089286D01*
X9696428Y10125000D01*
X9625000Y10160714D01*
X9482143Y10160714D01*
X9410714Y10125000D01*
X9053572Y9660714D02*
X9053572Y10160714D01*
X9053572Y10410714D02*
X9089286Y10375000D01*
X9053572Y10339286D01*
X9017857Y10375000D01*
X9053572Y10410714D01*
X9053572Y10339286D01*
X8375000Y10160714D02*
X8375000Y9553571D01*
X8410714Y9482143D01*
X8446429Y9446429D01*
X8517857Y9410714D01*
X8625000Y9410714D01*
X8696429Y9446429D01*
X8375000Y9696429D02*
X8446429Y9660714D01*
X8589286Y9660714D01*
X8660714Y9696429D01*
X8696429Y9732143D01*
X8732143Y9803571D01*
X8732143Y10017857D01*
X8696429Y10089286D01*
X8660714Y10125000D01*
X8589286Y10160714D01*
X8446429Y10160714D01*
X8375000Y10125000D01*
X8017858Y9660714D02*
X8017858Y10160714D01*
X8017858Y10410714D02*
X8053572Y10375000D01*
X8017858Y10339286D01*
X7982143Y10375000D01*
X8017858Y10410714D01*
X8017858Y10339286D01*
X7767857Y10160714D02*
X7482143Y10160714D01*
X7660715Y10410714D02*
X7660715Y9767857D01*
X7625000Y9696429D01*
X7553572Y9660714D01*
X7482143Y9660714D01*
X6910715Y9660714D02*
X6910715Y10053571D01*
X6946429Y10125000D01*
X7017858Y10160714D01*
X7160715Y10160714D01*
X7232144Y10125000D01*
X6910715Y9696429D02*
X6982144Y9660714D01*
X7160715Y9660714D01*
X7232144Y9696429D01*
X7267858Y9767857D01*
X7267858Y9839286D01*
X7232144Y9910714D01*
X7160715Y9946429D01*
X6982144Y9946429D01*
X6910715Y9982143D01*
X6446430Y9660714D02*
X6517858Y9696429D01*
X6553573Y9767857D01*
X6553573Y10410714D01*
X6160716Y9732143D02*
X6125001Y9696429D01*
X6160716Y9660714D01*
X6196430Y9696429D01*
X6160716Y9732143D01*
X6160716Y9660714D01*
X5696430Y9660714D02*
X5767858Y9696429D01*
X5803573Y9732143D01*
X5839287Y9803571D01*
X5839287Y10017857D01*
X5803573Y10089286D01*
X5767858Y10125000D01*
X5696430Y10160714D01*
X5589287Y10160714D01*
X5517858Y10125000D01*
X5482144Y10089286D01*
X5446430Y10017857D01*
X5446430Y9803571D01*
X5482144Y9732143D01*
X5517858Y9696429D01*
X5589287Y9660714D01*
X5696430Y9660714D01*
X5125002Y9660714D02*
X5125002Y10160714D01*
X5125002Y10017857D02*
X5089287Y10089286D01*
X5053573Y10125000D01*
X4982144Y10160714D01*
X4910716Y10160714D01*
X4339287Y10160714D02*
X4339287Y9553571D01*
X4375001Y9482143D01*
X4410716Y9446429D01*
X4482144Y9410714D01*
X4589287Y9410714D01*
X4660716Y9446429D01*
X4339287Y9696429D02*
X4410716Y9660714D01*
X4553573Y9660714D01*
X4625001Y9696429D01*
X4660716Y9732143D01*
X4696430Y9803571D01*
X4696430Y10017857D01*
X4660716Y10089286D01*
X4625001Y10125000D01*
X4553573Y10160714D01*
X4410716Y10160714D01*
X4339287Y10125000D01*
D11*
X14428571Y11075000D02*
X14071428Y11075000D01*
X14499999Y10860714D02*
X14249999Y11610714D01*
X13999999Y10860714D01*
X13750000Y10860714D02*
X13750000Y11360714D01*
X13750000Y11289286D02*
X13714285Y11325000D01*
X13642857Y11360714D01*
X13535714Y11360714D01*
X13464285Y11325000D01*
X13428571Y11253571D01*
X13428571Y10860714D01*
X13428571Y11253571D02*
X13392857Y11325000D01*
X13321428Y11360714D01*
X13214285Y11360714D01*
X13142857Y11325000D01*
X13107142Y11253571D01*
X13107142Y10860714D01*
X12750000Y10860714D02*
X12750000Y11360714D01*
X12750000Y11610714D02*
X12785714Y11575000D01*
X12750000Y11539286D01*
X12714285Y11575000D01*
X12750000Y11610714D01*
X12750000Y11539286D01*
X12071428Y11360714D02*
X12071428Y10753571D01*
X12107142Y10682143D01*
X12142857Y10646429D01*
X12214285Y10610714D01*
X12321428Y10610714D01*
X12392857Y10646429D01*
X12071428Y10896429D02*
X12142857Y10860714D01*
X12285714Y10860714D01*
X12357142Y10896429D01*
X12392857Y10932143D01*
X12428571Y11003571D01*
X12428571Y11217857D01*
X12392857Y11289286D01*
X12357142Y11325000D01*
X12285714Y11360714D01*
X12142857Y11360714D01*
X12071428Y11325000D01*
X11607143Y10860714D02*
X11678571Y10896429D01*
X11714286Y10932143D01*
X11750000Y11003571D01*
X11750000Y11217857D01*
X11714286Y11289286D01*
X11678571Y11325000D01*
X11607143Y11360714D01*
X11500000Y11360714D01*
X11428571Y11325000D01*
X11392857Y11289286D01*
X11357143Y11217857D01*
X11357143Y11003571D01*
X11392857Y10932143D01*
X11428571Y10896429D01*
X11500000Y10860714D01*
X11607143Y10860714D01*
X10250000Y11610714D02*
X10250000Y11075000D01*
X10285714Y10967857D01*
X10357143Y10896429D01*
X10464286Y10860714D01*
X10535714Y10860714D01*
X9571428Y10860714D02*
X9571428Y11253571D01*
X9607142Y11325000D01*
X9678571Y11360714D01*
X9821428Y11360714D01*
X9892857Y11325000D01*
X9571428Y10896429D02*
X9642857Y10860714D01*
X9821428Y10860714D01*
X9892857Y10896429D01*
X9928571Y10967857D01*
X9928571Y11039286D01*
X9892857Y11110714D01*
X9821428Y11146429D01*
X9642857Y11146429D01*
X9571428Y11182143D01*
X8892857Y10896429D02*
X8964286Y10860714D01*
X9107143Y10860714D01*
X9178571Y10896429D01*
X9214286Y10932143D01*
X9250000Y11003571D01*
X9250000Y11217857D01*
X9214286Y11289286D01*
X9178571Y11325000D01*
X9107143Y11360714D01*
X8964286Y11360714D01*
X8892857Y11325000D01*
X8571429Y10860714D02*
X8571429Y11610714D01*
X8500000Y11146429D02*
X8285714Y10860714D01*
X8285714Y11360714D02*
X8571429Y11075000D01*
X7964286Y11146429D02*
X7392857Y11146429D01*
X7071429Y11539286D02*
X7035715Y11575000D01*
X6964286Y11610714D01*
X6785715Y11610714D01*
X6714286Y11575000D01*
X6678572Y11539286D01*
X6642857Y11467857D01*
X6642857Y11396429D01*
X6678572Y11289286D01*
X7107143Y10860714D01*
X6642857Y10860714D01*
X6321429Y10932143D02*
X6285714Y10896429D01*
X6321429Y10860714D01*
X6357143Y10896429D01*
X6321429Y10932143D01*
X6321429Y10860714D01*
X5571428Y10860714D02*
X6000000Y10860714D01*
X5785714Y10860714D02*
X5785714Y11610714D01*
X5857143Y11503571D01*
X5928571Y11432143D01*
X6000000Y11396429D01*
X5250000Y10860714D02*
X5250000Y11360714D01*
X5250000Y11289286D02*
X5214285Y11325000D01*
X5142857Y11360714D01*
X5035714Y11360714D01*
X4964285Y11325000D01*
X4928571Y11253571D01*
X4928571Y10860714D01*
X4928571Y11253571D02*
X4892857Y11325000D01*
X4821428Y11360714D01*
X4714285Y11360714D01*
X4642857Y11325000D01*
X4607142Y11253571D01*
X4607142Y10860714D01*
X4250000Y10860714D02*
X4250000Y11360714D01*
X4250000Y11289286D02*
X4214285Y11325000D01*
X4142857Y11360714D01*
X4035714Y11360714D01*
X3964285Y11325000D01*
X3928571Y11253571D01*
X3928571Y10860714D01*
X3928571Y11253571D02*
X3892857Y11325000D01*
X3821428Y11360714D01*
X3714285Y11360714D01*
X3642857Y11325000D01*
X3607142Y11253571D01*
X3607142Y10860714D01*
M02*
