G04 #@! TF.FileFunction,Legend,Top*
%FSLAX46Y46*%
G04 Gerber Fmt 4.6, Leading zero omitted, Abs format (unit mm)*
G04 Created by KiCad (PCBNEW 4.0.6-e0-6349~53~ubuntu16.04.1) date Thu Jun 15 10:39:54 2017*
%MOMM*%
%LPD*%
G01*
G04 APERTURE LIST*
%ADD10C,0.100000*%
%ADD11C,0.250000*%
%ADD12C,0.200000*%
%ADD13C,0.300000*%
%ADD14C,0.180000*%
G04 APERTURE END LIST*
D10*
D11*
X10319048Y11128571D02*
X11080953Y11128571D01*
X14119048Y11028571D02*
X14880953Y11028571D01*
X14500001Y10647619D02*
X14500001Y11409524D01*
D12*
X11800000Y10700000D02*
X11200000Y10700000D01*
X12800000Y10700000D02*
X14000000Y10700000D01*
X13299929Y11100125D02*
G75*
G03X13300000Y10300000I-699929J-400125D01*
G01*
X12800000Y10700000D02*
G75*
G03X12800000Y10700000I-200000J0D01*
G01*
D13*
X12271429Y2852857D02*
X12485715Y2781429D01*
X12842858Y2781429D01*
X12985715Y2852857D01*
X13057144Y2924286D01*
X13128572Y3067143D01*
X13128572Y3210000D01*
X13057144Y3352857D01*
X12985715Y3424286D01*
X12842858Y3495714D01*
X12557144Y3567143D01*
X12414286Y3638571D01*
X12342858Y3710000D01*
X12271429Y3852857D01*
X12271429Y3995714D01*
X12342858Y4138571D01*
X12414286Y4210000D01*
X12557144Y4281429D01*
X12914286Y4281429D01*
X13128572Y4210000D01*
X12128572Y5892857D02*
X13271429Y5892857D01*
X12128572Y8432857D02*
X13271429Y8432857D01*
X12700000Y7861429D02*
X12700000Y9004286D01*
D14*
X-4700000Y11500000D02*
X-4700000Y3000000D01*
X-4700000Y3000000D02*
X-4700000Y2500000D01*
X-4700000Y11500000D02*
X8800000Y11500000D01*
X8800000Y11500000D02*
X8800000Y2500000D01*
X8800000Y2500000D02*
X-4700000Y2500000D01*
M02*
